# xmcd
#
# Track frame offsets:
#       150
#       24522
#       46653
#       70055
#       88560
#       109166
#       131758
#       150178
#       168366
#       183524
#       201703
#
# Disc length: 2984 seconds
#
# Revision: 1
# Processed by: cddbd v1.5.2PL0 Copyright (c) Steve Scherf et al.
# Submitted via: WaveLab 4.01
#
DISCID=8c0ba60b
DTITLE=Bora Öztoprak - Tam Karşındayım
DYEAR=2007
DGENRE=Türkçe Pop
TTITLE0=Niyetin Nedir
TTITLE1=Ölmek Var Dönmek Yok
TTITLE2=Hoşçakal
TTITLE3=Tam Karşındayım
TTITLE4=Yama
TTITLE5=Yalan
TTITLE6=Çok Sakat Bu İşler
TTITLE7=Geceler Ayaz
TTITLE8=Bacımızsın
TTITLE9=Akdeniz Geceleri 2007
TTITLE10=Seni Seviyorum 2007
EXTD=
EXTT0=
EXTT1=
EXTT2=
EXTT3=
EXTT4=
EXTT5=
EXTT6=
EXTT7=
EXTT8=
EXTT9=
EXTT10=
PLAYORDER=
